<svg width="287" height="166" viewBox="0 0 287 166" fill="none" xmlns="http://www.w3.org/2000/svg">
<g filter="url(#filter0_d_9_13)">
<path d="M30 5.75C36.1667 24.0833 43.1667 44.25 51 66.25C58.8333 88.0833 66 107 72.5 123C77.3333 107.5 84 88.9167 92.5 67.25C101 45.4167 108.917 25.75 116.25 8.24999C118.417 3.08332 122.083 0.499988 127.25 0.499988C132.083 0.499988 135.75 1.49999 138.25 3.49999C140.75 5.33332 142 8.58332 142 13.25C142 15.0833 141.75 16.6667 141.25 18C140.75 19.3333 140 21.0833 139 23.25C133.833 33.4167 128.667 45.1667 123.5 58.5C118.333 71.6667 112 88.4167 104.5 108.75C104.833 107.917 102.5 114.167 97.5 127.5L89.25 149C88.25 151.667 86.5833 153.75 84.25 155.25C82.0833 156.583 79.5833 157.25 76.75 157.25C73.9167 157.25 70.75 156.583 67.25 155.25C63.9167 153.75 61.5 152.25 60 150.75C54.3333 139.917 47.0833 124.25 38.25 103.75C29.5833 83.25 22.0833 64.3333 15.75 47L12 36.75C9.5 29.75 7.66667 24.4167 6.5 20.75C5.33333 16.9167 4.75 13.8333 4.75 11.5C4.75 8.16666 6.58333 5.49999 10.25 3.49999C14.0833 1.49999 17.75 0.499988 21.25 0.499988C23.0833 0.499988 24.8333 0.916655 26.5 1.74999C28.1667 2.58332 29.3333 3.91666 30 5.75Z" fill="#FFA600" shape-rendering="crispEdges"/>
<path d="M30 5.75C36.1667 24.0833 43.1667 44.25 51 66.25C58.8333 88.0833 66 107 72.5 123C77.3333 107.5 84 88.9167 92.5 67.25C101 45.4167 108.917 25.75 116.25 8.24999C118.417 3.08332 122.083 0.499988 127.25 0.499988C132.083 0.499988 135.75 1.49999 138.25 3.49999C140.75 5.33332 142 8.58332 142 13.25C142 15.0833 141.75 16.6667 141.25 18C140.75 19.3333 140 21.0833 139 23.25C133.833 33.4167 128.667 45.1667 123.5 58.5C118.333 71.6667 112 88.4167 104.5 108.75C104.833 107.917 102.5 114.167 97.5 127.5L89.25 149C88.25 151.667 86.5833 153.75 84.25 155.25C82.0833 156.583 79.5833 157.25 76.75 157.25C73.9167 157.25 70.75 156.583 67.25 155.25C63.9167 153.75 61.5 152.25 60 150.75C54.3333 139.917 47.0833 124.25 38.25 103.75C29.5833 83.25 22.0833 64.3333 15.75 47L12 36.75C9.5 29.75 7.66667 24.4167 6.5 20.75C5.33333 16.9167 4.75 13.8333 4.75 11.5C4.75 8.16666 6.58333 5.49999 10.25 3.49999C14.0833 1.49999 17.75 0.499988 21.25 0.499988C23.0833 0.499988 24.8333 0.916655 26.5 1.74999C28.1667 2.58332 29.3333 3.91666 30 5.75Z" fill="#208837" fill-opacity="0.2" shape-rendering="crispEdges"/>
<path d="M147.967 11.25C147.967 4.08333 153.217 0.499988 163.717 0.499988C168.217 0.499988 176.8 0.666658 189.467 0.999997C203.467 1.66666 214.05 2 221.217 2C227.05 2 234.133 1.66666 242.467 0.999997C248.133 0.666658 251.717 0.499988 253.217 0.499988C262.383 0.833327 270.133 2.5 276.467 5.5C278.3 6.33333 279.8 7.33333 280.967 8.49999C282.133 9.66666 282.717 11.5833 282.717 14.25C282.717 17.9167 281.55 21.0833 279.217 23.75C276.883 26.25 274.05 27.5 270.717 27.5C267.05 27.5 261.717 27 254.717 26C248.55 24.8333 243.133 24.25 238.467 24.25C233.967 24.25 230.55 24.3333 228.217 24.5C227.717 30 227.467 43.1667 227.467 64C227.467 88.8333 228.217 114 229.717 139.5L230.217 146.75C230.217 153.583 226.3 157 218.467 157C212.3 157 208.133 155.583 205.967 152.75C203.8 149.75 202.717 145.25 202.717 139.25C202.717 127.417 202.383 112.667 201.717 95C201.05 80.3333 200.717 69.9167 200.717 63.75C200.717 59.5833 201.217 46.8333 202.217 25.5L172.967 25.75C163.633 25.75 157.133 24.9167 153.467 23.25C149.8 21.4167 147.967 17.4167 147.967 11.25Z" fill="#1BA213" fill-opacity="0.92" shape-rendering="crispEdges"/>
<path d="M147.967 11.25C147.967 4.08333 153.217 0.499988 163.717 0.499988C168.217 0.499988 176.8 0.666658 189.467 0.999997C203.467 1.66666 214.05 2 221.217 2C227.05 2 234.133 1.66666 242.467 0.999997C248.133 0.666658 251.717 0.499988 253.217 0.499988C262.383 0.833327 270.133 2.5 276.467 5.5C278.3 6.33333 279.8 7.33333 280.967 8.49999C282.133 9.66666 282.717 11.5833 282.717 14.25C282.717 17.9167 281.55 21.0833 279.217 23.75C276.883 26.25 274.05 27.5 270.717 27.5C267.05 27.5 261.717 27 254.717 26C248.55 24.8333 243.133 24.25 238.467 24.25C233.967 24.25 230.55 24.3333 228.217 24.5C227.717 30 227.467 43.1667 227.467 64C227.467 88.8333 228.217 114 229.717 139.5L230.217 146.75C230.217 153.583 226.3 157 218.467 157C212.3 157 208.133 155.583 205.967 152.75C203.8 149.75 202.717 145.25 202.717 139.25C202.717 127.417 202.383 112.667 201.717 95C201.05 80.3333 200.717 69.9167 200.717 63.75C200.717 59.5833 201.217 46.8333 202.217 25.5L172.967 25.75C163.633 25.75 157.133 24.9167 153.467 23.25C149.8 21.4167 147.967 17.4167 147.967 11.25Z" fill="#208837" fill-opacity="0.2" shape-rendering="crispEdges"/>
</g>
<defs>
<filter id="filter0_d_9_13" x="0.75" y="0.5" width="285.967" height="164.75" filterUnits="userSpaceOnUse" color-interpolation-filters="sRGB">
<feFlood flood-opacity="0" result="BackgroundImageFix"/>
<feColorMatrix in="SourceAlpha" type="matrix" values="0 0 0 0 0 0 0 0 0 0 0 0 0 0 0 0 0 0 127 0" result="hardAlpha"/>
<feOffset dy="4"/>
<feGaussianBlur stdDeviation="2"/>
<feComposite in2="hardAlpha" operator="out"/>
<feColorMatrix type="matrix" values="0 0 0 0 0 0 0 0 0 0 0 0 0 0 0 0 0 0 0.25 0"/>
<feBlend mode="normal" in2="BackgroundImageFix" result="effect1_dropShadow_9_13"/>
<feBlend mode="normal" in="SourceGraphic" in2="effect1_dropShadow_9_13" result="shape"/>
</filter>
</defs>
</svg>
